PathFileType	4	(X/Y/Z)	C:\Users\WrightLab\Desktop\Jo\P2_Trial24.trc
DataRate	CameraRate	NumFrames	NumMarkers	Units	OrigDataRate	OrigDataStartFrame	OrigNumFrames
100.00	100.00	       8	19	mm	100.00	374	       597
Frame#	Time	Headset_Front			Headset_Back			Headset_Left			Headset_Right			Left_Shoulder			Right_Shoulder			Sternum			C7			Left Elbow			Right Elbow			Left Wrist			Right Wrist			Left ASIS			Right ASIS			S2			Left Knee			Right Knee			Left Ankle			Right Ankle			
		X1	Y1	Z1	X2	Y2	Z2	X3	Y3	Z3	X4	Y4	Z4	X5	Y5	Z5	X6	Y6	Z6	X7	Y7	Z7	X8	Y8	Z8	X9	Y9	Z9	X10	Y10	Z10	X11	Y11	Z11	X12	Y12	Z12	X13	Y13	Z13	X14	Y14	Z14	X15	Y15	Z15	X16	Y16	Z16	X17	Y17	Z17	X18	Y18	Z18	X19	Y19	Z19	

374	3.730	28.88308	1465.77148	1291.97705	23.66523	1675.54590	1065.76794				-79.56937	1546.29211	1223.46191	130.09462	1423.68164	979.83990	-148.91026	1423.72925	1156.48389	17.12899	1302.06995	1116.06787	-84.45377	1427.54053	979.15302	260.90219	1083.26074	933.36389	-247.24445	1094.08252	1163.39343	318.71756	857.17560	952.83557	-247.07715	839.89209	1200.94409	70.83144	1011.28302	1111.23413	-54.26253	987.76697	1157.85291	-72.88481	936.54041	885.94580	153.07031	475.68747	831.45996	-79.40545	563.14063	1193.59326	114.14590	210.54927	600.08105	-9.30912	172.65782	1353.78455	
375	3.740	28.08818	1467.11707	1305.99475	23.40877	1676.43958	1079.57959				-79.59571	1546.80652	1236.64441	131.58240	1425.42932	995.71490	-149.14310	1426.44995	1168.01758	16.33277	1304.58398	1130.31409	-82.71885	1429.35938	990.94214	262.88412	1085.44019	949.31219	-245.93776	1097.21899	1175.54089	315.64343	854.93878	960.29852	-243.17143	843.12946	1217.52930	68.61030	1014.00037	1126.41626	-56.62093	990.24542	1167.03137	-70.20592	937.94757	897.23309	156.74335	473.94092	860.03137	-82.61159	567.33875	1213.50806	118.86512	223.58865	622.49713	-8.69699	167.53796	1355.85413	
376	3.750	27.14841	1468.49048	1319.45911	23.17154	1678.46729	1093.24426				-80.58240	1547.84155	1249.70276	132.99831	1427.62280	1011.13300	-150.03133	1429.13147	1179.18799	16.05371	1307.06921	1145.08044	-81.57446	1431.81262	1003.09753	264.14359	1086.08215	965.69403	-243.07303	1100.09167	1190.36279	312.92862	853.30499	968.24780	-238.97505	846.67487	1234.38721	66.27945	1017.68994	1137.64453	-56.99087	994.47479	1180.72961	-68.10535	940.06946	909.37286	159.40157	472.24811	888.82611	-86.53503	570.29156	1228.73608	121.18668	235.67223	645.24231	-8.88962	164.25368	1358.83423	
377	3.760	26.13722	1469.26685	1332.20068	23.31092	1680.26404	1107.35083				-81.43082	1549.60303	1262.51343	134.39951	1430.10681	1025.53906	-151.12648	1432.35449	1190.17871	15.03961	1309.66235	1158.35413	-79.65203	1433.78076	1014.39624	265.04822	1087.23547	982.05298	-241.09926	1102.90198	1204.69470				-234.73444	850.40424	1251.09827	64.58556	1021.39893	1151.11206	-59.92268	994.43689	1186.91516	-66.20222	941.62579	920.75787	166.54759	476.42484	917.96655	-91.32996	571.22394	1242.59802	124.76523	248.66161	670.40204	-9.28249	160.40132	1360.90503	
378	3.770	24.37756	1470.55615	1345.07715	22.23537	1683.87036	1121.78186	134.08681	1578.19275	1203.29834	-82.78534	1551.81824	1275.34851	135.60742	1431.67078	1040.08838	-152.61967	1435.81677	1201.08337	14.76896	1312.70764	1172.25549	-77.89370	1436.21570	1025.81836	265.70258	1088.39026	998.65454	-239.62476	1106.19678	1217.84387				-231.19649	853.76483	1267.62817	63.96649	1025.39575	1162.83093	-61.25998	999.05035	1204.52332	-64.30473	943.14752	932.25165	174.16232	482.23291	946.16919	-96.43014	571.58728	1254.93921	128.31035	261.71542	696.77692	-9.75116	157.63908	1362.04370	
379	3.780	22.51060	1471.90466	1357.08325	21.50224	1687.29785	1135.71277	133.53575	1580.80383	1219.14282	-83.51628	1553.63562	1287.66223	137.36673	1434.39929	1053.86621	-153.05743	1438.57922	1211.89575	13.81606	1315.46802	1185.29822	-76.42546	1438.48730	1037.60120	265.96716	1089.33240	1015.29248	-237.80940	1108.84180	1230.30737				-227.96881	857.78156	1283.35620	63.14178	1028.10278	1174.83972	-60.89715	1001.58655	1216.24597	-63.17145	945.37793	943.60779	181.39653	487.38123	974.58936	-101.52368	571.28534	1265.48230	131.06505	273.98132	723.07611	-8.99717	154.28448	1360.01819	
380	3.790	19.78595	1472.86865	1367.19702	21.69282	1690.43066	1149.59363	133.24438	1583.89294	1233.81152	-85.20398	1555.81116	1299.39136	137.74051	1436.16333	1066.58252	-153.16481	1441.27051	1222.44617	13.99751	1318.75098	1198.06409	-75.04510	1441.43933	1049.44934	266.15826	1090.83228	1031.22668	-237.02457	1111.90808	1241.98584	294.72571	848.48712	997.69086	-223.65778	861.58972	1299.37463	62.87849	1030.27747	1186.17725	-61.39498	1003.42590	1229.19739	-63.06680	949.00616	955.03107	188.59018	491.72955	1003.05414	-106.67126	570.95581	1273.51855	134.19156	284.23511	750.78809	-8.86151	153.14456	1358.49243	
381	3.800	18.53025	1474.38367	1378.88733	22.07560	1693.17761	1163.22363				-86.30395	1557.08594	1310.78149	139.18246	1438.89001	1080.58984	-153.53258	1444.29919	1232.92224	13.44786	1321.76001	1210.55054	-73.32644	1444.32678	1060.79541	265.33127	1091.88623	1046.94531	-236.87196	1114.97852	1254.29395	292.96988	851.62048	1005.10852	-220.87126	865.44348	1315.07666	63.15793	1033.22852	1198.21985	-60.57549	1004.92871	1239.96497	-63.23088	952.40686	965.95044	196.35161	494.32556	1032.48486	-112.44367	571.21710	1279.98523	138.18506	294.59152	779.22833	-8.82022	152.82578	1357.09851	
